<?xml version="1.0" encoding="UTF-8" standalone="no"?>
<!DOCTYPE svg PUBLIC "-//W3C//DTD SVG 1.1//EN" "http://www.w3.org/Graphics/SVG/1.1/DTD/svg11.dtd">
<svg width="100%" height="100%" viewBox="0 0 215 98" version="1.1" xmlns="http://www.w3.org/2000/svg" xmlns:xlink="http://www.w3.org/1999/xlink" xml:space="preserve" xmlns:serif="http://www.serif.com/" style="fill-rule:evenodd;clip-rule:evenodd;stroke-linejoin:round;stroke-miterlimit:2;">
    <g transform="matrix(1,0,0,1,-34,-36)">
        <g>
            <path d="M137.9,91.5L126.3,91.5C125.1,91.5 124.2,90.5 124.2,89.4C124.2,88.2 125.1,87.3 126.3,87.3L140,87.3L140,89.4C140,90.5 139.1,91.5 137.9,91.5M151.6,72.9C151.3,65.5 145.3,59.6 137.9,59.6L117.8,59.6L117.8,71.3L137.9,71.3C139.1,71.3 140,72.3 140,73.4L140,75.5L126.3,75.5C118.7,75.5 112.6,81.7 112.6,89.3C112.6,96.9 118.8,103.1 126.3,103.1L137.9,103.1C145.5,103.1 151.6,96.9 151.6,89.3L151.6,72.9Z" style="fill-rule:nonzero;"/>
            <rect x="37.5" y="60.2" width="11.6" height="42.4"/>
            <path d="M91.9,59.7C87.9,59.7 84.2,61.2 81.3,63.6C78.4,61.2 74.8,59.7 70.7,59.7C61.7,59.7 54.3,67.1 54.3,76.1L54.3,102.6L65.9,102.6L65.9,76.1C65.9,73.5 68,71.3 70.7,71.3C73.3,71.3 75.5,73.4 75.5,76.1L75.5,102.6L87.1,102.6L87.1,76.1C87.1,73.5 89.2,71.3 91.9,71.3C94.5,71.3 96.7,73.4 96.7,76.1L96.7,102.6L108.3,102.6L108.3,76.1C108.3,67 101,59.7 91.9,59.7" style="fill-rule:nonzero;"/>
            <path d="M43.4,53.1C39,53.1 35.5,49.5 35.5,45.1C35.5,40.7 39.1,37.1 43.4,37.1C47.8,37.1 51.3,40.7 51.3,45.1C51.3,49.6 47.7,53.1 43.4,53.1" style="fill-rule:nonzero;"/>
            <path d="M167,81.4C167,75.8 171.5,71.3 177,71.3C182.5,71.3 187,75.8 187,81.4C187,87 182.5,91.5 177,91.5C171.5,91.5 167,87 167,81.4M191.3,105.3L182.8,105.3L182.8,102.4C192,99.9 198.7,91.4 198.7,81.4C198.7,76.9 197.3,72.7 195,69.3L200.6,64.8L193.3,55.7L185.9,61.7C183.2,60.5 180.2,59.8 177,59.8C165.1,59.8 155.3,69.6 155.3,81.6C155.3,91.5 162,99.9 171,102.5L171,111.3C171,114.5 173.6,117.1 176.8,117.1L191.2,117.1C192.4,117.1 193.3,118.1 193.3,119.2C193.3,120.4 192.4,121.3 191.2,121.3L171,121.3L171,133L191.2,133C198.8,133 204.9,126.8 204.9,119.2C205.1,111.5 198.9,105.3 191.3,105.3" style="fill-rule:nonzero;"/>
            <path d="M234.1,86.8C230.6,91.7 223.7,92.9 218.7,89.4C213.7,85.9 212.6,79 216.1,74.1C219.6,69.2 226.5,68 231.5,71.5C236.4,75 237.6,81.9 234.1,86.8M236.5,65.1C227.9,59 216,61 209.9,69.5C203.8,78 205.8,89.9 214.4,96C223,102.1 234.9,100.1 241,91.6C247.1,83.1 245.1,71.2 236.5,65.1" style="fill:rgb(85,166,46);fill-rule:nonzero;"/>
            <path d="M239,75.2C236.6,74.6 238.8,72.1 236.1,70.6C228.3,66.2 225.7,63.7 219.4,69C215.3,71.3 211.8,77.5 213.3,81C214.5,83.8 217.1,86 219,86.4C220.9,86.9 220.9,86.3 220.6,85.8C219.1,83.9 218.2,81.4 218.5,79.7C220.1,72 227.3,72 230.8,74.5C234.3,77 235.1,81.9 232.6,85.4C232,86.2 229.4,89 224.5,89C224,89 223.1,89 223.4,89.9C223.6,90.5 224.3,91.1 225.4,91.5C230.7,93.4 217.9,93.9 216,92.9C220,96.4 230.2,96.9 235.3,91.2C233.3,89.7 243.2,87.7 239,75.2" style="fill:rgb(0,136,52);fill-rule:nonzero;"/>
            <path d="M241.6,86.1C241.5,86 241.4,85.9 241.3,85.8C243.6,82.1 242.4,79.8 240.9,75.9C240.1,76.2 239.4,72.4 238.5,71.4C233.8,65.9 225.5,63.9 219.7,67.4C216.5,69.4 213.6,74.9 212.7,76.3C211.8,77.6 212.9,80.3 214.4,82.7C212,73.4 223.7,65.4 231.6,71.4C240.6,77.6 235.3,91 225.6,91.3C224.4,92.5 223,91.8 222,91.9C222.5,92.3 221.8,92.3 220.9,92C221.4,92.6 222.2,92.5 221.7,92.7C221,92.9 219.5,91.8 219.1,92.2C219,92.3 219.3,92.4 219.2,92.6C219.1,93.2 217.6,92.6 216.7,92.1C216.7,92.1 217.4,92.8 216.9,92.6C216.4,92.4 216.3,92.4 215.9,92.2C221,99.9 234.1,97.1 239.2,90.7C237.6,90.6 241.7,87.4 241.6,86.1" style="fill:rgb(0,150,54);fill-rule:nonzero;"/>
            <path d="M238.3,88.4C238.4,88.5 238.7,88.3 238.5,88.8C238.4,89 238.3,89.1 238.2,89.3C238.1,89.5 238,89.6 237.9,89.7C237.8,89.8 237.7,90 237.5,90.1C237.4,90.2 237.2,90.3 237.1,90.5C237,90.6 236.8,90.7 236.7,90.8C236.6,90.9 236.4,91 236.3,91.2C236,91.4 235.8,91.7 235.5,92C235.5,92.1 235.6,92.2 235.6,92.3C234.6,93 233.5,93.6 232.3,94.1C231.3,94.6 230.2,95.1 229.1,95.4C228,95.7 226.8,95.9 225.6,95.9C225.7,96 225.7,96.1 225.5,96.1C224.5,96.2 223.1,96 221.8,95.6C221.6,95.6 221.4,95.5 221.2,95.5C221,95.5 221,95.6 220.9,95.6C220.3,95.4 219.8,95.2 219.3,94.9C217.7,94.3 216.1,93.5 214.6,92.3C213.9,91.7 213.2,91.1 212.6,90.4C212,89.7 211.4,89 210.9,88.1C209.9,86.5 209.2,84.7 208.8,82.7C208.4,80.7 208.4,78.6 208.7,76.5C208.7,76 208.8,75.6 208.9,75.1C209,74.7 209.1,74.2 209.2,73.8C209.5,72.9 209.8,72.1 210.2,71.3C210.9,70.1 211.8,68.9 212.9,67.9C214,66.9 215.2,66 216.4,65.4C216.2,65.3 216.4,64.9 216.7,64.5C217.1,64.1 217.7,63.6 218.3,63.2C219.5,62.3 221.8,59.8 224.7,59.9C225.6,59.9 226.5,59.4 226.8,59.3C228,59 229.9,58.8 232.7,59.5C233.8,59.8 235.1,60.4 236.2,61.1C236.5,61.3 236.7,61.4 237,61.6C237.2,61.8 237.5,61.9 237.7,62C238.1,62.3 238.4,62.5 238.6,62.5C238.9,62.6 238.9,62.5 238.8,62.4C238.7,62.2 238.4,62 238.2,61.7C237.7,61.2 233.8,58.9 231.8,58.3C230.8,58 229.7,57.8 228.6,57.7C227.5,57.6 226.5,57.5 225.4,57.5C221.1,57.6 216.9,58.8 213.2,61.1C212.3,61.7 211.6,62.4 210.8,63.1C210,63.8 209.1,64.4 208.3,65.2C207.6,66 206.7,66.8 206.1,67.7C205.5,68.6 205.2,69.6 204.7,70.5C202.8,74.4 202.1,78.8 202.6,83.1C202.7,83.8 202.9,85.1 203.4,86.7C203.9,88.3 204.5,90.4 205.9,92.2C206.5,92.7 207.2,94.2 208.1,95.2C208.9,96.2 209.9,97.1 211,98C213.1,99.7 215.7,101.2 218.5,102.1C221.3,103 224.3,103.3 227.2,103.1C230.1,102.9 234.8,101.8 235.2,101C235.4,100.6 237.5,99.8 238.4,99.2C239.4,98.5 240.2,97.8 241,97.2C242.5,95.8 243.6,94.5 244.3,93.5C244.5,93.2 244.6,93 244.8,92.7C246.3,90.4 247.5,87.5 247.9,84.6C248.4,81.7 248.1,78.9 247.5,76.7C246.9,74.7 246,72.8 244.8,71C244.9,71.5 245.3,72.4 245.4,73.5C244.7,71.6 242.9,68.6 241.7,67.7C241.4,67.5 242.5,69.8 241,69.4C241,69.7 241,69.7 240.9,70.2C240.8,70.5 240.4,69.5 239.7,69.1C239.3,68.9 240,69.4 240.5,70.5C241,71.3 238.3,68.9 237.8,68.7C237.5,68.6 237.2,68.4 238,69.7C238.7,71 234.7,68.2 234.5,68C234.5,68 236.6,69.6 238.2,71.7C239.9,74.2 240.8,77.1 240.8,80.1C240.6,83 239.8,85.9 238.3,88.4" style="fill:rgb(149,193,31);fill-rule:nonzero;"/>
            <path d="M241,91.6C245.9,84.8 245.6,75.8 240.9,69.4C240.9,69.4 241,70 240.4,69.5C239.6,68.9 238.2,67.9 238.8,68.6C239.5,69.3 239.7,69.5 240.1,70.1C240.6,70.9 239,69.4 238,68.7C236.2,67.4 234.6,68.2 234.3,68C234.3,68 236.4,69.6 238,71.7C239.7,74.2 240.6,77.1 240.6,80.1C240.7,83.1 239.8,86 238.3,88.5C238.4,88.6 238.7,88.4 238.5,88.9C238.4,89.1 238.3,89.2 238.2,89.4C238.1,89.6 238,89.7 237.9,89.8C237.8,89.9 237.7,90.1 237.5,90.2C237.4,90.3 237.2,90.4 237.1,90.6C237,90.7 236.8,90.8 236.7,90.9C236.6,91 236.4,91.1 236.3,91.3C236,91.5 235.8,91.8 235.5,92.1C235.5,92.2 235.6,92.3 235.6,92.4C234.6,93.1 233.5,93.7 232.3,94.2C231.3,94.7 230.2,95.2 229.1,95.5C228,95.8 226.8,96 225.6,96C225.7,96.1 225.7,96.2 225.5,96.2C224.5,96.3 223.1,96.1 221.8,95.7C221.6,95.7 221.4,95.6 221.2,95.6C221,95.6 221,95.7 220.9,95.7C220.3,95.5 219.8,95.3 219.3,95C217.7,94.4 216.1,93.6 214.6,92.4C213.9,91.8 213.2,91.2 212.6,90.5C212,89.8 211.4,89.1 210.9,88.2C209.9,86.6 209.2,84.8 208.8,82.8C208.4,80.8 208.4,78.7 208.7,76.6C208.7,76.1 208.8,75.7 208.9,75.2C209,74.8 209.1,74.3 209.2,73.9C209.5,73 209.8,72.2 210.2,71.4C210.9,70.2 211.8,69 212.9,68C214,67 215.2,66.1 216.4,65.5C216.2,65.4 216.4,65 216.7,64.6C217.1,64.2 217.7,63.7 218.3,63.3C218.4,63.2 218.6,63.1 218.8,62.9C215.4,64.2 212.3,66.5 210,69.7C203.9,78.2 205.9,90.1 214.5,96.2C222.9,102.2 234.9,100.2 241,91.6" style="fill:rgb(122,177,37);fill-rule:nonzero;"/>
        </g>
    </g>
</svg>